PathFileType	4	(X/Y/Z)	RBDS03\RBDS03runT45.trc
DataRate	CameraRate	NumFrames	NumMarkers	Units	OrigDataRate	OrigDataStartFrame	OrigNumFrames
150.000000	150.000000	6	33	mm	150.000000	0	4500
Frame#	Time	L.ASIS			L.Heel.Bottom			L.Heel.Lateral			L.Heel.Top			L.Iliac.Crest			L.MT1			L.MT5			L.PSIS			L.Shank.Bottom.Lateral			L.Shank.Bottom.Medial			L.Shank.Top.Lateral			L.Shank.Top.Medial			L.Thigh.Bottom.Lateral			L.Thigh.Bottom.Medial			L.Thigh.Top.Lateral			L.Thigh.Top.Medial			R.ASIS			R.ASY			R.Heel.Bottom			R.Heel.Lateral			R.Heel.Top			R.Iliac.Crest			R.MT1			R.MT5			R.PSIS			R.Shank.Bottom.Lateral			R.Shank.Bottom.Medial			R.Shank.Top.Lateral			R.Shank.Top.Medial			R.Thigh.Bottom.Lateral			R.Thigh.Bottom.Medial			R.Thigh.Top.Lateral			R.Thigh.Top.Medial			
		X1	Y1	Z1	X2	Y2	Z2	X3	Y3	Z3	X4	Y4	Z4	X5	Y5	Z5	X6	Y6	Z6	X7	Y7	Z7	X8	Y8	Z8	X9	Y9	Z9	X10	Y10	Z10	X11	Y11	Z11	X12	Y12	Z12	X13	Y13	Z13	X14	Y14	Z14	X15	Y15	Z15	X16	Y16	Z16	X17	Y17	Z17	X18	Y18	Z18	X19	Y19	Z19	X20	Y20	Z20	X21	Y21	Z21	X22	Y22	Z22	X23	Y23	Z23	X24	Y24	Z24	X25	Y25	Z25	X26	Y26	Z26	X27	Y27	Z27	X28	Y28	Z28	X29	Y29	Z29	X30	Y30	Z30	X31	Y31	Z31	X32	Y32	Z32	X33	Y33	Z33	

1	0	2382.912449689761	1036.055010313358	948.5815943119029	2510.490672692785	21.7489435779389	1042.876158037415	2536.548130880156	40.34517207692464	992.7957522348812	2504.494576589717	72.11313573468529	1038.072834579011	2301.314158465403	1103.001812294996	911.524702052219	2715.949417044539	119.8226864405017	1065.801879032331	2685.48538307951	82.99215779033514	965.6070963567354	2224.558413982729	1058.046013971543	1031.921216244798	2533.689126494825	177.7254655609268	974.4562124202685	2492.169236612458	171.375574592781	1009.479273811395	2507.109308486625	250.6673425512409	955.3017600822035	2466.176145571337	245.3950691333031	989.9434069647646	2436.115212919422	605.2563601721546	935.8090934784909	2377.505610380365	591.3954056011031	978.334437441132	2391.934606361991	703.0191635678174	909.3480369574961	2334.138047333657	687.5726226700059	944.9908294281672	2420.565331909038	1027.774614468746	1154.679359445103	1704.798479569062	459.9308677426696	1121.834224334102	1769.759859064106	637.8287520322801	1066.094681528647	1753.459808334078	611.7200635771424	1121.286519274882	1799.518125079519	602.5946574374227	1083.619908116122	2381.399373912449	1115.819201194123	1193.67342522569	1650.993412336633	455.6904175522847	1056.73340307209	1638.163144495001	508.769827580228	1157.782528325762	2242.728498240942	1059.657204306127	1114.400553913253	1820.709054238037	560.193024779152	1153.781953743085	1830.107702875651	584.2087343747817	1109.350638093159	1902.394303974694	568.913777278941	1174.744293980662	1908.224293724014	595.4077404892961	1128.164086445469	2239.827021404762	610.5575219927376	1224.149936839326	2182.099918160134	620.5193244728254	1179.333874554153	2249.405581853185	720.6585237178988	1231.610160180627	2196.281565970525	729.2592530617916	1188.911497808998	
2	0.006666666666666667	2380.351637894115	1030.306744708993	948.3459405832364	2483.69389969652	23.53496102640732	1044.050254932112	2510.982175827081	40.96040528170131	994.5604542408034	2481.609854311969	73.61628601399063	1040.640556034796	2298.007101052368	1096.294529962132	911.6767560114267	2694.32938572633	104.7970047832235	1068.80602691314	2662.148364841021	74.13786880661353	967.6438948253024	2221.783534197359	1051.641070872034	1033.226830136621	2518.742369925234	173.4537975789549	976.5301544541151	2476.404019386744	169.6255256528357	1010.518137966558	2496.636168694818	247.2739566810866	956.5743294791142	2454.863937991516	244.61526607796	990.1519971289042	2437.843786941495	602.2682470233154	934.5857650892142	2379.368784466954	587.5515427307693	976.8732624268712	2392.805068813265	699.5672067338435	908.3108105111036	2334.944805589881	683.3381812108785	943.5457128746355	2418.521942956992	1020.795951607735	1154.500217766572	1720.61556246636	465.5162360543435	1123.618271473536	1787.662646861205	642.3298527903083	1067.298359333026	1771.810890775468	616.3304710246423	1122.843263884376	1817.126006314235	606.5400318183149	1084.2344447377	2379.997969696188	1108.096733665891	1194.085517494053	1665.685371481334	462.3783721851953	1059.478607674323	1655.39305459659	515.4025572046979	1161.583208841746	2240.447673020427	1052.488242027709	1115.698865376979	1838.033994782518	562.3825573248484	1155.276978754728	1848.414418390214	586.1602209572378	1110.767111144246	1919.793236455339	567.9146088031607	1176.268882612558	1926.595883311562	594.275711348965	1129.989284522633	2251.630599446616	599.2905063678661	1224.790274831217	2192.31786684223	607.5619465908974	1182.426302178612	2258.140928700891	709.6463920063246	1233.20291321236	2203.167862132741	716.6157569743697	1192.879591721294	
3	0.01333333333333333	2377.654003965715	1024.553994706059	948.1478693601683	2456.734582639427	25.34016515199309	1045.178854935447	2485.196836694267	41.66722765416776	996.257006112833	2458.396232397127	75.14896729271084	1043.114384421925	2294.725003337816	1089.524044467924	911.8349669202803	2672.23131147527	90.57349006507296	1071.684754496273	2638.451223129584	65.83792643214541	969.6117566823532	2218.919404496415	1045.294447329127	1034.55427994696	2503.428736497046	169.4784611370883	978.5654524603518	2460.296182904645	168.1998331865654	1011.482637777289	2485.84099069712	244.0982851716029	957.8026804911403	2443.268789093388	244.0735778478721	990.2947287706489	2439.301534323492	599.2952221920225	933.3570073703647	2380.989478190178	583.7742490548061	975.4656333195446	2393.430677069553	696.1496551531075	907.274360666543	2335.536651310784	679.1808072000189	942.1630246880522	2416.343199809	1013.869161727561	1154.339637138241	1736.736007554622	470.5202649096217	1125.406135599208	1805.625729829051	646.429761002739	1068.708084099619	1790.290495415569	620.4370694767993	1124.543052422029	1834.833338204569	610.1052035315161	1084.969542037206	2378.43858962684	1100.339370036745	1194.584048541413	1680.686059749547	468.511212699807	1062.282514111947	1672.914642609493	521.3021884875475	1165.423031417056	2238.053975858418	1045.395307616865	1116.988445252103	1855.577207336941	564.1505987680854	1156.839486344934	1866.902332793534	587.7698812320692	1112.299035119063	1937.399014333472	566.604514971631	1177.8460506807	1945.132694019303	592.9013334335766	1131.887751941061	2263.717003495143	588.364909630492	1225.369711487268	2202.859532070393	594.8691351734175	1185.438702539855	2267.083074150124	698.9162230314314	1234.730721447713	2210.299571468862	704.1826095544584	1196.817355282936	
4	0.02	2374.690816366259	1018.786615151615	948.011741850321	2429.476677723027	27.13906482655014	1046.228515338182	2459.000519254965	42.51696033182524	997.8319324416458	2434.561389747479	76.6963074609956	1045.423942350042	2291.448147324773	1082.621264931606	912.0136778077439	2649.245928336412	77.86178103998918	1074.318038664936	2614.085860770994	58.57460889580668	971.4475715985276	2215.879907276522	1039.058742636656	1035.921446704529	2487.407776476908	166.0207738254252	980.5348755164962	2443.534302229453	167.3446441457359	1012.319912433626	2474.416666461335	241.2878816302045	958.9556619535936	2431.125187066148	243.9344003418438	990.3270851950575	2440.232540692206	596.3072265260018	932.1198373814059	2382.131273026338	580.0790309077055	974.1576839691613	2393.580268548909	692.7614706233693	906.2393130849146	2335.704515293625	675.1329570006392	940.8960952148433	2413.902861711932	1007.031626871726	1154.21051580614	1753.450253397173	474.4396695964239	1127.220623475323	1823.663218768948	649.8018861941721	1070.537753355885	1808.986879448127	623.6094076379376	1126.535304875323	1852.699997467913	612.9814728854113	1085.957768915143	2376.578750399355	1092.519812880646	1195.244325073239	1696.232228978389	473.5780114300711	1065.201848796627	1690.971438758679	525.7950106841862	1169.340697047407	2235.442950320006	1038.447039655143	1118.260262230773	1873.528063782144	565.1350107035121	1158.535559149865	1885.72300376733	588.7523016765391	1114.057474678101	1955.403128132756	564.7224834557486	1179.522041909197	1963.985043007404	591.0885191314452	1133.926296861075	2276.357471848045	578.0992475186262	1225.827913341065	2214.037852573367	582.6819004512649	1188.293127951638	2276.421207366533	688.7270276743226	1236.133957683534	2217.908498202718	692.1461316563162	1200.687462816863	
5	0.02666666666666667	2371.376180001351	1013.014874524654	947.9423794733596	2401.83586748088	28.89699428151164	1047.174921171519	2432.265039356649	43.53099673809323	999.244504571946	2409.900902352623	78.23098492877938	1047.515021603804	2288.142790520478	1075.55402166255	912.2283374984539	2625.0870824928	67.18572177091099	1076.603487004304	2588.836524570329	52.68775230659803	973.0967870232987	2212.613452273494	1032.996380930168	1037.334284437804	2470.399514773563	163.2197436960608	982.4109596598535	2425.872866691589	167.2085341587543	1012.999247526655	2462.089238065324	238.9233939817313	960.0098151428325	2418.200988822695	244.2808152564671	990.2298507436415	2440.393134220624	593.2531705171414	930.8833111373066	2382.562064589142	576.4598888990555	972.9955867493476	2393.045891375474	689.3801955636962	905.2159732742375	2335.253990637183	671.210874940627	939.795544760426	2411.11336835753	1000.331215640796	1154.121997354197	1770.968761559536	476.8647622584102	1129.072162137018	1841.735410367397	652.1846985274177	1072.957006352633	1827.924284910813	625.5047075579007	1128.936874279414	1870.728916607209	614.9283910643113	1087.306065518592	2374.29960248961	1084.649788636809	1196.119048222928	1712.484017512769	477.1488006188847	1068.270580726117	1709.73094407144	528.3265398846906	1173.353411569155	2232.54641294687	1031.721686521501	1119.500545921784	1892.006750603228	565.0547681856352	1160.407492561318	1904.958401062356	588.888072134485	1116.12303661213	1973.931593126708	562.0794162606524	1181.320820204936	1983.240072250541	588.6998400781304	1136.148210081078	2289.75015772852	568.7852716581643	1226.120114904321	2226.096863145901	571.2342593741607	1190.911466070017	2286.287848676766	679.3192382833158	1237.369062918979	2226.175325892344	680.6911836863427	1204.438652726118	
6	0.03333333333333333	2367.682108934072	1007.276325225609	947.9222432806069	2373.775181918262	30.57152626268848	1048.006142120094	2404.925322687239	44.696975701524	1000.471213659435	2384.304182641184	79.71421496787664	1049.355178508947	2284.764303882813	1068.340444214385	912.4930133374169	2599.608161633721	58.83309425811962	1078.465734597885	2562.588583205882	48.34110655418695	974.5186744818438	2209.11339328823	1027.183849459163	1038.781014728753	2452.190564282653	161.1163390145534	984.168298760897	2407.137618548968	167.8238899951542	1013.517561120859	2448.619795466052	237.0071958577659	960.9525699685319	2404.297467488523	245.1010379167672	990.0142453880751	2439.549900171928	590.059805222464	929.6705460834905	2382.049346647436	572.8884544537444	972.0229934572683	2391.645657500049	685.9650530635519	904.2255076154172	2334.005630221139	667.4147351986916	938.9060782430469	2407.938422545381	993.832717043307	1154.078067680373	1789.407363874197	477.4955262073032	1130.951558576363	1859.739663330496	653.3867092919835	1076.07435577788	1847.052305921932	625.8827370118296	1131.819242396883	1888.856331733467	615.7828478217984	1089.085803666804	2371.515826710341	1076.794768160378	1197.230299230068	1729.521285049934	478.8873996756011	1071.491261280059	1729.277458199449	528.4885197762909	1177.449863271017	2229.343043085622	1025.311376625406	1120.688017815239	1911.051392149148	563.7293412444157	1162.466339204924	1924.607388572688	588.0370555507762	1118.534442676922	1993.031840679623	558.5774319943663	1183.237363876133	2002.908425244695	585.670370489061	1138.564368907593	2304.000908809463	560.683170854101	1226.221097159925	2239.192198480501	560.7539761935407	1193.217452816104	2296.743804421328	670.9113003547188	1238.41236247861	2235.214958495667	670.0030197345111	1208.003267720301	
